<?xml version="1.0" encoding="utf-8"?>
<!-- Svg Vector Icons : http://www.onlinewebfonts.com/icon -->
<!DOCTYPE svg PUBLIC "-//W3C//DTD SVG 1.1//EN" "http://www.w3.org/Graphics/SVG/1.1/DTD/svg11.dtd">
<svg version="1.1" xmlns="http://www.w3.org/2000/svg" xmlns:xlink="http://www.w3.org/1999/xlink" x="0px" y="0px" viewBox="0 0 1000 1000" enable-background="new 0 0 1000 1000" xml:space="preserve"><style>.cls-1{fill: #FFF}</style>
<g><path class='cls-1' d="M142.4,3.4h662.2c73.1,0,132.4,59.3,132.4,132.4v132.4h-66.2V135.8c0-36.6-29.7-66.2-66.2-66.2H142.4c-36.6,0-66.2,29.7-66.2,66.2v728.4c0,36.6,29.7,66.2,66.2,66.2h662.2c36.6,0,66.2-29.6,66.2-66.2V731.8h66.2v132.4c0,73.1-59.3,132.4-132.4,132.4H142.4C69.3,996.6,10,937.3,10,864.2V135.8C10,62.7,69.3,3.4,142.4,3.4L142.4,3.4z M806.1,706.7c12.9,12.9,12.9,33.9,0,46.8c-12.9,12.9-33.9,12.9-46.8,0L530.8,525.1c-6.9-6.9-9.8-16-9.4-25.1c-0.4-9,2.5-18.2,9.4-25.1l228.4-228.4c12.9-12.9,33.9-12.9,46.8,0c12.9,12.9,12.9,33.9,0,46.8L632.5,466.9h324.4c18.3,0,33.1,14.8,33.1,33.1c0,18.3-14.8,33.1-33.1,33.1H632.5L806.1,706.7L806.1,706.7z"/><path class='cls-1' d="M318.8,506.2c69.9,0,126.7-55.6,126.7-124.3c0-68.6-56.7-124.3-126.7-124.3c-70,0-126.7,55.7-126.7,124.3C192.2,450.5,248.9,506.2,318.8,506.2L318.8,506.2z M322,517.9c-97.9,0-221.6,77.9-221.6,174v21.2h443.3V692C543.6,595.9,419.9,517.9,322,517.9L322,517.9z"/></g>
</svg>
